<svg viewBox="0 0 550 114" fill="none" xmlns="http://www.w3.org/2000/svg">
    <path d="M522.982 18.6L525.571 1H548.347L545.888 18.6H522.982Z" fill="#FF4B4B"/>
    <path d="M27.659 90.035C21.0163 90.035 15.775 89.561 11.935 88.612C8.09633 87.663 5.314 86.109 3.588 83.952C1.86267 81.796 1 78.863 1 75.153C1 73.515 1.12933 71.876 1.388 70.236L1.776 67.389C2.46667 62.558 3.804 58.891 5.788 56.389C7.77267 53.887 10.8787 52.1183 15.106 51.083C19.3333 50.0477 25.3727 49.53 33.224 49.53H35.812C41.9373 49.53 46.7253 49.9833 50.176 50.89C53.6273 51.7953 56.1293 53.2833 57.682 55.354H58.071L58.718 49.272C58.89 47.7187 58.976 46.7263 58.976 46.295C58.9767 44.225 58.5453 42.715 57.682 41.765C56.82 40.817 55.5043 40.1917 53.735 39.889C51.967 39.587 49.357 39.436 45.905 39.436H43.318C39.2627 39.436 36.1783 39.6303 34.065 40.019C31.9517 40.407 30.485 41.0107 29.665 41.83C28.845 42.6493 28.3057 43.7926 28.047 45.26L27.917 45.648H6.436L6.696 43.707C7.386 38.789 8.96033 35.079 11.419 32.577C13.877 30.0757 17.7593 28.329 23.066 27.337C28.3727 26.3437 35.986 25.8473 45.906 25.848H49.013C57.209 25.848 63.5717 26.3873 68.101 27.466C72.6303 28.5433 75.952 30.506 78.066 33.354C80.1793 36.2007 81.236 40.385 81.236 45.907C81.236 48.1497 80.934 51.5573 80.33 56.13L75.671 89H53.282L54.447 82.012H54.188C52.376 84.082 50.6073 85.678 48.882 86.8C47.1567 87.921 44.8707 88.741 42.024 89.259C39.176 89.776 35.2933 90.035 30.376 90.035H27.659ZM39.694 76.188C44.3533 76.188 47.8043 75.994 50.047 75.606C52.2903 75.218 53.8433 74.571 54.706 73.665C55.5687 72.759 56.1293 71.4 56.388 69.588L56.648 68.553C56.7333 68.122 56.776 67.518 56.776 66.741C56.776 65.533 56.388 64.606 55.612 63.959C54.8353 63.312 53.39 62.859 51.276 62.6C49.1627 62.341 46.0353 62.212 41.894 62.212H40.471C35.811 62.212 32.3383 62.428 30.053 62.859C27.7677 63.29 26.193 63.959 25.329 64.865C24.467 65.771 23.9063 67.13 23.647 68.941L23.517 69.976L23.388 71.271C23.388 72.564 23.8627 73.578 24.812 74.311C25.7613 75.044 27.2927 75.541 29.406 75.8C31.5193 76.059 34.5173 76.189 38.4 76.188H39.694ZM92.688 26.882H115.464L113.911 36.588H114.171C116.068 33.9133 118.16 31.8 120.447 30.248C122.734 28.6947 125.451 27.5727 128.6 26.882C131.749 26.192 135.61 25.847 140.182 25.847H141.347C148.076 25.847 153.468 26.494 157.523 27.788C161.578 29.082 164.576 31.282 166.517 34.388C168.458 37.4947 169.429 41.7223 169.429 47.071C169.429 49.3143 169.213 52.2907 168.782 56L163.994 89H141.217L145.747 56.776C146.006 54.9647 146.135 53.412 146.135 52.118C146.135 49.616 145.66 47.7393 144.711 46.488C143.762 45.2367 142.295 44.3957 140.311 43.965C138.327 43.5343 135.566 43.3187 132.029 43.318H130.605C126.119 43.318 122.539 43.8356 119.865 44.871C117.19 45.9063 115.184 47.4807 113.847 49.594C112.51 51.7073 111.583 54.533 111.064 58.071L106.664 89H83.888L92.688 26.882ZM172.211 89L181.011 26.882H203.787L194.987 89H172.211ZM212.393 26.882H235.169L233.616 36.588H233.876C236.205 33.2233 239.267 30.592 243.063 28.694C246.859 26.796 251.734 25.847 257.687 25.847H259.24C266.487 25.847 271.943 26.9037 275.61 29.017C279.277 31.1303 281.671 34.56 282.793 39.306H282.923C285.338 34.8193 288.724 31.4547 293.081 29.212C297.438 26.9687 302.981 25.847 309.711 25.847H311.134C317.259 25.847 322.112 26.451 325.693 27.659C329.273 28.867 331.883 30.8943 333.523 33.741C335.161 36.5877 335.98 40.5133 335.981 45.518C335.981 47.8473 335.679 51.3413 335.075 56L330.416 89H307.64L312.299 56.647C312.557 54.835 312.686 53.282 312.687 51.988C312.687 49.658 312.277 47.868 311.457 46.618C310.637 45.368 309.451 44.505 307.899 44.029C306.346 43.555 304.275 43.318 301.687 43.318H300.393C295.993 43.318 292.606 43.7923 290.233 44.741C287.86 45.6903 286.157 47.1787 285.123 49.206C284.087 51.2327 283.31 54.1013 282.793 57.812L278.393 89H255.616L260.146 56.647C260.405 55.439 260.534 53.929 260.534 52.117C260.534 49.7017 260.124 47.847 259.304 46.553C258.484 45.259 257.319 44.3963 255.81 43.965C254.301 43.5337 252.295 43.318 249.793 43.318H248.499C244.012 43.318 240.604 43.7923 238.275 44.741C235.946 45.691 234.242 47.1577 233.163 49.141C232.085 51.1257 231.287 54.059 230.769 57.941L226.37 89H203.594L212.393 26.882ZM375.605 90.035C367.065 90.035 360.314 89.431 355.352 88.224C350.392 87.016 346.704 84.816 344.288 81.624C341.872 78.431 340.664 73.859 340.664 67.906C340.664 64.541 340.88 61.478 341.311 58.718L341.571 56.258C342.778 47.6313 344.848 41.1613 347.781 36.848C350.714 32.5333 354.791 29.6213 360.011 28.112C365.231 26.6027 372.5 25.8477 381.817 25.847H385.829C393.852 25.847 400.301 26.4077 405.176 27.529C410.051 28.651 413.696 30.6787 416.111 33.612C418.526 36.5453 419.734 40.6433 419.735 45.906C419.735 48.408 419.562 50.7373 419.217 52.894L417.923 62.6H363.053L362.793 64.67C362.535 65.965 362.406 67.043 362.405 67.906C362.405 70.149 362.944 71.81 364.023 72.888C365.102 73.967 366.655 74.679 368.682 75.024C370.709 75.369 373.664 75.541 377.547 75.541H380.005C384.233 75.541 387.447 75.304 389.647 74.829C391.847 74.356 393.4 73.622 394.305 72.629C395.212 71.637 395.794 70.235 396.052 68.424V68.164H417.405L417.147 70.106C416.37 75.455 414.58 79.553 411.776 82.4C408.972 85.247 405.047 87.231 400 88.353C394.953 89.475 388.288 90.036 380.005 90.035H375.605ZM398.123 50.824L398.382 48.494C398.555 47.89 398.641 47.0273 398.641 45.906C398.641 44.1806 398.21 42.865 397.347 41.959C396.484 41.053 395.082 40.406 393.141 40.018C391.2 39.63 388.46 39.4357 384.923 39.435H382.335C377.762 39.435 374.29 39.7803 371.917 40.471C369.545 41.161 367.841 42.2823 366.805 43.835C365.77 45.3883 365.037 47.718 364.605 50.824H398.123Z" fill="white"/>
    <path d="M414.717 111C412.819 111 411.266 110.914 410.057 110.741L410.447 108.541C411.827 108.714 413.337 108.801 414.976 108.8C417.046 108.8 418.664 108.39 419.829 107.57C420.993 106.751 421.942 105.306 422.676 103.235C423.409 101.165 424.078 98.102 424.681 94.047L434.129 26.882H436.846L427.4 94.1759C426.796 98.4039 426.019 101.726 425.07 104.141C424.122 106.557 422.828 108.304 421.188 109.382C419.549 110.461 417.391 111 414.717 111ZM473.15 89.9059C464.264 89.9059 457.578 89.5829 453.091 88.9359C448.605 88.2889 445.413 87.059 443.515 85.247C441.617 83.435 440.668 80.6309 440.668 76.8349C440.668 75.6269 440.733 74.527 440.862 73.535C440.991 72.543 441.142 71.4859 441.315 70.3649H444.033C443.602 72.6949 443.386 74.7649 443.386 76.5759C443.386 79.6819 444.227 81.99 445.909 83.5C447.591 85.01 450.481 86.045 454.579 86.606C458.678 87.166 464.868 87.4459 473.15 87.4469H477.68C485.272 87.4469 491.052 86.973 495.02 86.024C498.989 85.075 501.794 83.608 503.433 81.624C505.072 79.639 506.15 76.792 506.668 73.082C507.013 70.925 507.186 69.157 507.186 67.776C507.186 65.188 506.388 63.225 504.791 61.888C503.194 60.5507 500.348 59.6233 496.251 59.106C492.154 58.5887 486.007 58.2866 477.809 58.1999C469.44 58.1139 463.078 57.704 458.721 56.97C454.364 56.236 451.345 55.093 449.662 53.541C447.979 51.9877 447.138 49.7877 447.138 46.941C447.138 45.6477 447.354 43.6632 447.786 40.9879C448.303 37.0192 449.489 33.9782 451.344 31.8649C453.199 29.7509 456.284 28.2409 460.597 27.3349C464.91 26.4289 471.208 25.976 479.491 25.976H482.727C490.147 25.976 495.884 26.3642 499.938 27.1409C503.993 27.9176 506.927 29.255 508.738 31.153C510.549 33.051 511.455 35.7687 511.456 39.306C511.456 40.686 511.283 42.7133 510.938 45.388H508.35C508.695 42.9727 508.868 40.9882 508.868 39.4349C508.868 36.5016 508.07 34.2583 506.474 32.705C504.878 31.153 502.225 30.0529 498.514 29.4049C494.805 28.7582 489.499 28.4349 482.597 28.4349H479.362C471.597 28.4349 465.752 28.845 461.827 29.665C457.901 30.485 455.14 31.7789 453.544 33.5469C451.948 35.3149 450.891 37.9679 450.374 41.5059C450.029 43.7486 449.856 45.431 449.856 46.553C449.856 48.969 450.611 50.8023 452.121 52.053C453.631 53.3037 456.37 54.188 460.338 54.706C464.307 55.224 470.217 55.5259 478.068 55.6119C486.695 55.6979 493.231 56.086 497.674 56.776C502.117 57.466 505.244 58.631 507.056 60.271C508.868 61.9097 509.774 64.3249 509.774 67.5179C509.774 68.8979 509.601 70.839 509.256 73.341C508.653 77.654 507.38 80.976 505.438 83.306C503.498 85.636 500.349 87.3179 495.991 88.3529C491.634 89.3879 485.488 89.9059 477.551 89.9059H473.15Z" fill="white" stroke="white" stroke-width="2"/>
</svg>
