<svg xmlns="http://www.w3.org/2000/svg" viewBox="0 0 65 48" fill="none">
    <path fill="#cf649a" d="M55.957 27.56a13.6 13.6 0 0 0-5.891 1.351c-.61-1.189-1.219-2.226-1.32-3.002-.115-.9-.254-1.45-.115-2.526s.775-2.602.775-2.727c-.012-.113-.14-.663-1.448-.675s-2.437.25-2.564.588q-.342.938-.547 1.914c-.228 1.176-2.615 5.342-3.974 7.53-.445-.85-.826-1.6-.902-2.2-.114-.901-.254-1.451-.114-2.527.139-1.076.774-2.602.774-2.727-.012-.113-.14-.663-1.447-.675s-2.437.25-2.564.588-.267 1.139-.547 1.914c-.267.776-3.44 7.731-4.266 9.544-.42.926-.787 1.664-1.054 2.165-.267.5-.012.038-.037.088l-.356.663v.012c-.178.313-.369.614-.457.614-.063 0-.19-.839.025-1.99.47-2.414 1.613-6.18 1.6-6.317 0-.062.216-.725-.736-1.063-.928-.338-1.258.225-1.334.225s-.14.2-.14.2 1.029-4.24-1.968-4.24c-1.88 0-4.47 2.014-5.752 3.852l-6.476 3.49-.14-.15C11.353 27.66 4.637 24.959 4.916 19.83c.101-1.865.762-6.78 12.899-12.734 9.941-4.878 17.903-3.54 19.287-.564 1.968 4.253-4.254 12.158-14.589 13.299-3.936.438-6.005-1.064-6.527-1.626-.546-.589-.622-.614-.825-.5-.33.174-.127.7 0 1.013.305.788 1.574 2.19 3.732 2.89 1.892.613 6.514.95 12.1-1.176 6.26-2.39 11.149-9.019 9.714-14.56-1.46-5.64-10.957-7.492-19.935-4.352-5.344 1.874-11.123 4.8-15.287 8.64C.523 14.715-.264 18.694.065 20.345c1.156 5.892 9.395 9.732 12.696 12.572l-.457.25c-1.65.8-7.936 4.04-9.51 7.468-1.777 3.877.28 6.667 1.65 7.042 4.241 1.164 8.583-.926 10.932-4.366 2.336-3.44 2.057-7.905.978-9.944l-.038-.075 1.295-.75a76 76 0 0 1 2.386-1.326c-.406 1.088-.698 2.376-.85 4.252-.178 2.202.736 5.054 1.942 6.18.533.489 1.168.5 1.562.5 1.397 0 2.032-1.138 2.73-2.501.864-1.664 1.625-3.59 1.625-3.59s-.952 5.216 1.65 5.216c.954 0 1.905-1.214 2.337-1.84v.013s.025-.038.076-.125c.102-.15.152-.238.152-.238v-.025c.381-.65 1.232-2.14 2.502-4.603 1.638-3.177 3.212-7.155 3.212-7.155s.153.976.623 2.577c.28.95.889 1.99 1.359 3.002l-.61.825.013.013q-.488.636-1.004 1.251c-1.295 1.526-2.844 3.265-3.047 3.765-.241.589-.19 1.026.28 1.376.343.25.952.3 1.6.25 1.167-.075 1.98-.363 2.386-.538a8.3 8.3 0 0 0 2.057-1.064c1.27-.925 2.044-2.239 1.968-3.99-.038-.964-.355-1.914-.75-2.815l.344-.5c2.006-2.89 3.555-6.067 3.555-6.067s.152.976.622 2.577c.242.813.724 1.7 1.156 2.576-1.879 1.514-3.06 3.265-3.466 4.416-.75 2.126-.166 3.09.94 3.315.495.1 1.206-.125 1.739-.35a8 8 0 0 0 2.197-1.114c1.27-.925 2.488-2.214 2.425-3.952-.038-.8-.254-1.59-.546-2.34 1.6-.65 3.67-1.025 6.297-.713 5.65.65 6.767 4.127 6.55 5.578-.215 1.451-1.396 2.252-1.79 2.502-.394.238-.52.325-.482.5.05.263.228.25.572.2.47-.075 2.97-1.188 3.072-3.865.152-3.44-3.162-7.193-9.04-7.155zM12.38 42.034c-1.867 2.015-4.494 2.777-5.612 2.127-1.206-.689-.736-3.653 1.563-5.792 1.396-1.3 3.212-2.501 4.405-3.24l1.156-.688c.076-.05.127-.075.127-.075.09-.05.191-.113.293-.175.85 3.051.038 5.728-1.93 7.842zm13.65-9.143c-.648 1.564-2.019 5.578-2.843 5.353-.711-.188-1.143-3.227-.14-6.23C23.554 30.5 24.634 28.7 25.27 28c1.029-1.126 2.146-1.501 2.425-1.039.33.6-1.257 4.954-1.664 5.93m11.262 5.303c-.28.138-.533.238-.648.163-.09-.05.115-.238.115-.238s1.41-1.489 1.968-2.176l1.105-1.39v.15c0 1.802-1.752 3.003-2.539 3.491zm8.684-1.951c-.203-.15-.178-.614.508-2.065.267-.575.876-1.538 1.93-2.451.126.375.203.738.19 1.076-.013 2.251-1.638 3.09-2.628 3.44"/>
</svg>
